name GIL08_slow4.mot
datacolumns 153
datarows 4
range 1.19166672 1.21666670
endheader

                time	           pelvis_tx	           pelvis_ty	           pelvis_tz	         pelvis_tilt	         pelvis_list	     pelvis_rotation	       hip_flexion_r	     hip_adduction_r	      hip_rotation_r	        knee_angle_r	       ankle_angle_r	    subtalar_angle_r	         mtp_angle_r	       hip_flexion_l	     hip_adduction_l	      hip_rotation_l	        knee_angle_l	       ankle_angle_l	    subtalar_angle_l	         mtp_angle_l	    lumbar_extension	      lumbar_bending	     lumbar_rotation	     ground_force_vx	     ground_force_vy	     ground_force_vz	     ground_force_px	     ground_force_py	     ground_force_pz	     ground_force_vx	     ground_force_vy	     ground_force_vz	     ground_force_px	     ground_force_py	     ground_force_pz	     ground_torque_x	     ground_torque_y	     ground_torque_z	     ground_torque_x	     ground_torque_y	     ground_torque_z	    ground_marker_px	    ground_marker_py	    ground_marker_pz	    ground_marker_px	    ground_marker_py	    ground_marker_pz	    ground_marker_px	    ground_marker_py	    ground_marker_pz	    ground_marker_px	    ground_marker_py	    ground_marker_pz	    ground_marker_px	    ground_marker_py	    ground_marker_pz	    ground_marker_px	    ground_marker_py	    ground_marker_pz	    ground_marker_px	    ground_marker_py	    ground_marker_pz	    ground_marker_px	    ground_marker_py	    ground_marker_pz	    ground_marker_px	    ground_marker_py	    ground_marker_pz	    ground_marker_px	    ground_marker_py	    ground_marker_pz	    ground_marker_px	    ground_marker_py	    ground_marker_pz	    ground_marker_px	    ground_marker_py	    ground_marker_pz	    ground_marker_px	    ground_marker_py	    ground_marker_pz	    ground_marker_px	    ground_marker_py	    ground_marker_pz	    ground_marker_px	    ground_marker_py	    ground_marker_pz	    ground_marker_px	    ground_marker_py	    ground_marker_pz	    ground_marker_px	    ground_marker_py	    ground_marker_pz	    ground_marker_px	    ground_marker_py	    ground_marker_pz	    ground_marker_px	    ground_marker_py	    ground_marker_pz	    ground_marker_px	    ground_marker_py	    ground_marker_pz	    ground_marker_px	    ground_marker_py	    ground_marker_pz	    ground_marker_px	    ground_marker_py	    ground_marker_pz	    ground_marker_px	    ground_marker_py	    ground_marker_pz	    ground_marker_px	    ground_marker_py	    ground_marker_pz	    ground_marker_px	    ground_marker_py	    ground_marker_pz	    ground_marker_px	    ground_marker_py	    ground_marker_pz	    ground_marker_px	    ground_marker_py	    ground_marker_pz	    ground_marker_px	    ground_marker_py	    ground_marker_pz	    ground_marker_px	    ground_marker_py	    ground_marker_pz	    ground_marker_px	    ground_marker_py	    ground_marker_pz	    ground_marker_px	    ground_marker_py	    ground_marker_pz	    ground_marker_px	    ground_marker_py	    ground_marker_pz	    ground_marker_px	    ground_marker_py	    ground_marker_pz	    ground_marker_px	    ground_marker_py	    ground_marker_pz	    ground_marker_px	    ground_marker_py	    ground_marker_pz	    ground_marker_px	    ground_marker_py	    ground_marker_pz	    ground_marker_px	    ground_marker_py	    ground_marker_pz	
          1.19166672	         -1.48429704	          0.99212956	          0.22607949	          5.37857628	          0.10275997	          5.28951263	         -2.82817841	          0.49659494	          2.80538297	         -8.63578510	          5.32334614	          0.00000000	          0.00000000	         11.94648552	         -1.30233228	          4.95030928	        -45.81119537	          7.08207655	          0.00000000	          0.00000000	        -22.38117218	          4.01506567	         -2.16624284	         -2.32432501	        571.71750412	        -10.92880648	         -1.56165613	          0.00000000	          0.26397833	          0.00000000	          0.00000000	          0.00000000	         -1.90756055	          0.00000000	          0.16013889	          0.00000000	          0.37965576	          0.00000000	          0.00000000	          0.00000000	          0.00000000	         -1.56332135	          0.90345639	          0.22978272	         -1.55633390	          0.89335132	          0.28497195	         -1.56607091	          0.89467323	          0.17885597	         -1.53887331	          0.48811138	          0.27478999	         -1.44285274	          0.49481729	          0.15300006	         -1.58570910	          0.07063119	          0.25688273	         -1.64263260	          0.12961015	          0.14515206	         -1.48429704	          0.99212956	          0.22607949	         -1.47479153	          0.99083906	          0.32967216	         -1.49380255	          0.99342000	          0.12248684	         -1.68234658	          1.01586235	          0.27503672	         -1.69020867	          1.01526523	          0.19066390	         -1.53052390	          0.48699120	          0.33369061	         -1.44378471	          0.49837020	          0.09361355	         -1.54615569	          0.50121623	          0.21678917	         -1.44157219	          0.48731720	          0.20428587	         -1.59006619	          0.06950151	          0.29461521	         -1.64918470	          0.13402607	          0.10645041	         -1.58617425	          0.07822873	          0.22419848	         -1.63220453	          0.13795540	          0.17396142	         -1.61336708	          1.47099578	          0.25650373	         -1.51238477	          1.39507353	          0.33297041	         -1.51784384	          1.40575767	          0.17782253	         -1.52757847	          1.40188324	          0.25196227	         -1.48870862	          1.20182216	          0.23005229	         -1.50289857	          0.58898538	          0.41895595	         -1.32938182	          0.65272838	          0.13521461	         -1.48681498	          0.65251756	          0.35039636	         -1.42015016	          0.68858939	          0.10067179	         -1.48574972	          0.57295287	          0.32398722	         -1.40580893	          0.60211128	          0.10563973	         -1.56928551	          0.14059404	          0.36486858	         -1.50186634	          0.18448131	          0.13938977	         -1.58180285	          0.20206963	          0.30670983	         -1.53675282	          0.25928316	          0.13754983	         -1.46158767	          0.04310285	          0.24928005	         -1.53928030	          0.06452686	          0.13520943	
          1.20000005	         -1.47978926	          0.99203360	          0.22672346	          5.35517550	          0.21410416	          5.00772285	         -3.20679283	          0.41164419	          3.16654658	         -8.42416096	          5.48793745	          0.00000000	          0.00000000	         12.40849686	         -1.17976999	          4.87529945	        -44.66242218	          7.42221498	          0.00000000	          0.00000000	        -22.39643478	          3.88558269	         -1.97870624	         -0.18062041	        572.71957127	        -10.98384664	         -1.56138306	          0.00000000	          0.26424170	          0.00000000	          0.00000000	          0.00000000	         -1.90666956	          0.00000000	          0.16029593	          0.00000000	          0.45561713	          0.00000000	          0.00000000	          0.00000000	          0.00000000	         -1.55856609	          0.90342700	          0.23005787	         -1.55216753	          0.89320594	          0.28511235	         -1.56136155	          0.89467645	          0.17894992	         -1.53744483	          0.48793951	          0.27529827	         -1.43474138	          0.49533650	          0.15377843	         -1.58565259	          0.07063558	          0.25708607	         -1.62415171	          0.12468922	          0.14654011	         -1.47978926	          0.99203360	          0.22672346	         -1.47081161	          0.99059772	          0.33038601	         -1.48876679	          0.99346942	          0.12306090	         -1.67777681	          1.01579297	          0.27491298	         -1.68532133	          1.01523781	          0.19053161	         -1.52903163	          0.48681903	          0.33418983	         -1.43542695	          0.49886271	          0.09438697	         -1.54395068	          0.50100601	          0.21730912	         -1.43409598	          0.48826244	          0.20517887	         -1.59008253	          0.06950097	          0.29480991	         -1.63049698	          0.12868915	          0.10775881	         -1.58611953	          0.07840198	          0.22437651	         -1.61415339	          0.13351078	          0.17535566	         -1.60839093	          1.47095907	          0.25685754	         -1.50755250	          1.39501631	          0.33332419	         -1.51280177	          1.40572405	          0.17815363	         -1.52263618	          1.40184200	          0.25228828	         -1.48379600	          1.20177233	          0.23040351	         -1.50059009	          0.58883810	          0.41944277	         -1.32270181	          0.65441310	          0.13650723	         -1.48427200	          0.65221411	          0.35085034	         -1.41362906	          0.68951011	          0.10132270	         -1.48341858	          0.57265669	          0.32450768	         -1.39864194	          0.60315430	          0.10653593	         -1.56918561	          0.14052711	          0.36515105	         -1.48490584	          0.18360689	          0.14161164	         -1.58142078	          0.20212036	          0.30702752	         -1.52208579	          0.25735348	          0.13897713	         -1.46178734	          0.04310836	          0.24942617	         -1.51858675	          0.06310724	          0.13741943	
          1.20833337	         -1.47522259	          0.99191034	          0.22735240	          5.33237362	          0.30907750	          4.73726225	         -3.59083462	          0.34267822	          3.50852466	         -8.20567989	          5.66317129	          0.00000000	          0.00000000	         12.84588814	         -1.07832503	          4.81871939	        -43.45506668	          7.74385977	          0.00000000	          0.00000000	        -22.42336845	          3.76291299	         -1.81214118	          2.01985020	        573.78811303	        -11.01905267	         -1.56105518	          0.00000000	          0.26449750	          0.00000000	          0.00000000	          0.00000000	         -1.90583093	          0.00000000	          0.16045850	          0.00000000	          0.53397418	          0.00000000	          0.00000000	          0.00000000	          0.00000000	         -1.55382109	          0.90334249	          0.23032226	         -1.54792619	          0.89304918	          0.28527856	         -1.55660129	          0.89464021	          0.17907421	         -1.53599584	          0.48776972	          0.27579895	         -1.42677569	          0.49578461	          0.15456016	         -1.58558071	          0.07062203	          0.25726932	         -1.60548067	          0.11989293	          0.14795259	         -1.47522259	          0.99191034	          0.22735240	         -1.46675014	          0.99035656	          0.33107483	         -1.48369503	          0.99346411	          0.12362996	         -1.67318571	          1.01570606	          0.27476603	         -1.68041110	          1.01518643	          0.19037339	         -1.52752328	          0.48664185	          0.33468187	         -1.42721415	          0.49929234	          0.09516528	         -1.54339170	          0.50114185	          0.21809092	         -1.42697120	          0.48898292	          0.20583875	         -1.59008420	          0.06948207	          0.29498428	         -1.61161911	          0.12349420	          0.10909901	         -1.58606303	          0.07854236	          0.22453746	         -1.59608054	          0.12914781	          0.17673448	         -1.60342133	          1.47090816	          0.25713360	         -1.50275064	          1.39493263	          0.33373383	         -1.50776505	          1.40562475	          0.17850874	         -1.51771104	          1.40175688	          0.25265193	         -1.47894573	          1.20166326	          0.23085241	         -1.49826348	          0.58867151	          0.41990978	         -1.31609499	          0.65597516	          0.13780837	         -1.48161221	          0.65190828	          0.35129273	         -1.40720570	          0.69037181	          0.10207583	         -1.48167729	          0.57216817	          0.32495070	         -1.39170301	          0.60406530	          0.10737803	         -1.56907094	          0.14045376	          0.36541137	         -1.46784377	          0.18292858	          0.14380503	         -1.58100784	          0.20212749	          0.30730015	         -1.50729442	          0.25557128	          0.14039503	         -1.46199644	          0.04312338	          0.24960907	         -1.49776042	          0.06187806	          0.13974816	
          1.21666670	         -1.47055984	          0.99176502	          0.22795665	          5.31334925	          0.38350141	          4.49420881	         -3.98837376	          0.29518592	          3.80070710	         -7.98297405	          5.85676908	          0.00000000	          0.00000000	         13.25513649	         -0.99594533	          4.78134203	        -42.19034195	          8.05354881	          0.00000000	          0.00000000	        -22.42858696	          3.65246248	         -1.65767646	          4.24613965	        574.79753813	        -11.08889195	         -1.56062781	          0.00000000	          0.26475510	          0.00000000	          0.00000000	          0.00000000	         -1.90504346	          0.00000000	          0.16062967	          0.00000000	          0.61164954	          0.00000000	          0.00000000	          0.00000000	          0.00000000	         -1.54904437	          0.90323865	          0.23057342	         -1.54355061	          0.89288396	          0.28548610	         -1.55176175	          0.89456260	          0.17924620	         -1.53450382	          0.48760578	          0.27628788	         -1.41894376	          0.49619153	          0.15535305	         -1.58552086	          0.07059595	          0.25743291	         -1.58663952	          0.11522629	          0.14938578	         -1.47055984	          0.99176502	          0.22795665	         -1.46253955	          0.99012542	          0.33172816	         -1.47858012	          0.99340469	          0.12418513	         -1.66856480	          1.01560056	          0.27459851	         -1.67547238	          1.01510656	          0.19018385	         -1.52599132	          0.48645952	          0.33516464	         -1.41915035	          0.49968508	          0.09595607	         -1.54728484	          0.50229353	          0.21966420	         -1.41981554	          0.48948041	          0.20634229	         -1.59008980	          0.06945002	          0.29513982	         -1.59260368	          0.11846112	          0.11047286	         -1.58558357	          0.07863783	          0.22464097	         -1.57810879	          0.12488410	          0.17817032	         -1.59844303	          1.47080338	          0.25736201	         -1.49787164	          1.39482760	          0.33413494	         -1.50269353	          1.40548122	          0.17887194	         -1.51273119	          1.40163338	          0.25301832	         -1.47396803	          1.20152843	          0.23131992	         -1.49592721	          0.58848238	          0.42035115	         -1.30957675	          0.65740031	          0.13908952	         -1.47895479	          0.65163571	          0.35175580	         -1.40088093	          0.69113952	          0.10290837	         -1.48166740	          0.57127047	          0.32520089	         -1.38483167	          0.60488790	          0.10818559	         -1.56893635	          0.14036644	          0.36564630	         -1.45071387	          0.18246205	          0.14588265	         -1.58059084	          0.20211196	          0.30757561	         -1.49242222	          0.25382325	          0.14179504	         -1.46221495	          0.04314939	          0.24982792	         -1.47683370	          0.06086349	          0.14217061	
